<svg width="100" height="16" viewBox="0 0 100 16" fill="none" xmlns="http://www.w3.org/2000/svg">
<g clip-path="url(#clip0_6_42)">
<path d="M70.1668 15.9324H93.5374C94.3861 15.9324 95.2265 15.7266 96.0105 15.3266C96.7946 14.9266 97.507 14.3403 98.1071 13.6012C98.7073 12.8621 99.1833 11.9846 99.5081 11.0189C99.8328 10.0532 100 9.01823 100 7.97297C100.001 6.92659 99.8353 5.89012 99.5112 4.92287C99.1871 3.95562 98.7113 3.07658 98.111 2.33605C97.5108 1.59551 96.7979 1.00801 96.0131 0.607168C95.2283 0.206323 94.387 -1.5081e-06 93.5374 0L70.1668 0C69.3172 -1.5081e-06 68.4759 0.206323 67.6911 0.607168C66.9063 1.00801 66.1934 1.59551 65.5932 2.33605C64.9929 3.07658 64.5171 3.95562 64.193 4.92287C63.8688 5.89012 63.7027 6.92659 63.7042 7.97297C63.7042 10.084 64.3851 12.1085 65.597 13.6012C66.809 15.0939 68.4528 15.9324 70.1668 15.9324ZM3.69395 15.955H6.5467V3.11712H10.2407V0H0V3.10811H3.69395V15.955ZM13.9712 15.955H16.8239V3.71622H16.8605L20.1339 15.9459H22.3283L25.7114 3.71622H25.7479V15.9459H28.6007V0H24.3033L21.3042 10.4054H21.2676L18.2869 0H13.9712V15.955ZM32.6019 0.0540541H36.881C37.8772 0.0559399 38.8696 0.207203 39.8361 0.504505C40.7164 0.761688 41.5458 1.23343 42.2756 1.89189C42.9814 2.54553 43.5496 3.39823 43.9324 4.37838C44.3652 5.54286 44.5742 6.81451 44.5432 8.09459C44.563 9.27388 44.3602 10.4427 43.9507 11.509C43.5694 12.4685 43.0227 13.314 42.3488 13.9865C41.6589 14.6677 40.871 15.1827 40.0263 15.5045C39.1335 15.8537 38.2018 16.0285 37.265 16.0225H32.6019V0.0540541ZM35.4546 12.7568H36.9176C37.5329 12.7619 38.1466 12.6788 38.7463 12.509C39.2813 12.3752 39.7874 12.1035 40.2311 11.7117C40.6547 11.317 40.9916 10.7983 41.2113 10.2027C41.4681 9.48225 41.593 8.70099 41.5771 7.91442C41.5879 7.20962 41.4626 6.51175 41.2113 5.87838C40.9832 5.31709 40.6543 4.82721 40.2494 4.44595C39.8287 4.06111 39.3538 3.77552 38.8487 3.6036C38.2915 3.41174 37.7155 3.31623 37.137 3.31982H35.4546V12.7568ZM48.676 0.0540541H53.5038C54.0704 0.0543943 54.6362 0.104068 55.1971 0.202703C55.7292 0.287595 56.2453 0.485739 56.7223 0.788288C57.1678 1.07303 57.5459 1.49517 57.8195 2.01351C58.123 2.64604 58.2692 3.37428 58.2401 4.10811C58.2651 4.92527 58.048 5.72577 57.6293 6.36036C57.2019 6.97007 56.6385 7.41177 56.0091 7.63063V7.65766C56.4141 7.72888 56.8069 7.88103 57.1721 8.10811C57.5093 8.31669 57.813 8.59906 58.0682 8.94144C58.3209 9.28431 58.5161 9.68542 58.6424 10.1216C58.7786 10.5835 58.8467 11.0717 58.8435 11.5631C58.8655 12.3032 58.713 13.0353 58.4047 13.6712C58.1177 14.2246 57.7294 14.6875 57.2709 15.0225C56.7888 15.3789 56.2605 15.6304 55.7092 15.7658C55.1406 15.9159 54.5607 15.9914 53.9792 15.991H48.676V0.0540541ZM51.5288 6.42793H53.5952C53.8143 6.4294 54.0328 6.39916 54.2462 6.33784C54.4503 6.28326 54.6448 6.1841 54.8204 6.04505C54.9918 5.90892 55.1337 5.72338 55.2337 5.50451C55.3409 5.25509 55.3938 4.97576 55.3873 4.69369C55.3991 4.40702 55.3432 4.12228 55.2264 3.87387C55.1129 3.66102 54.9583 3.48614 54.7765 3.36487C54.5727 3.23884 54.3544 3.15224 54.1292 3.10811C53.9062 3.05501 53.6797 3.02786 53.4526 3.02703H51.5142L51.5288 6.42793ZM51.5288 13.027H54.0889C54.3141 13.0278 54.5386 12.9976 54.7582 12.9369C54.9766 12.8819 55.1841 12.7748 55.369 12.6216C55.5536 12.4716 55.7075 12.2712 55.8189 12.036C55.939 11.7675 55.9984 11.4641 55.9908 11.1577C56.0005 10.8343 55.9205 10.5166 55.764 10.2568C55.6104 10.023 55.4118 9.84023 55.1862 9.72523C54.9518 9.60498 54.706 9.52174 54.4547 9.47748C54.2063 9.43404 53.9558 9.41146 53.7049 9.40991H51.5471L51.5288 13.027Z" fill="url(#paint0_linear_6_42)"/>
</g>
<defs>
<linearGradient id="paint0_linear_6_42" x1="0" y1="8" x2="100" y2="8" gradientUnits="userSpaceOnUse">
<stop stop-color="#003566"/>
<stop offset="0.819" stop-color="#FFC300"/>
</linearGradient>
<clipPath id="clip0_6_42">
<rect width="100" height="16" fill="white"/>
</clipPath>
</defs>
</svg>
